{"glyphs":{"0":{"ha":500,"x_min":0,"x_max":0,"o":"m 124 13 b 71 418 103 29 71 139 b 113 736 71 592 75 699 b 251 763 135 758 213 763 b 379 747 360 763 369 754 b 424 561 394 732 424 682 b 428 394 424 546 428 443 b 390 26 428 131 421 56 b 249 -4 363 0 301 -4 b 124 13 165 -4 133 4 m 260 86 b 329 97 283 86 318 89 b 335 407 339 149 335 351 b 308 660 335 474 335 629 b 244 676 292 679 268 676 b 174 667 225 676 186 674 b 164 421 165 633 164 468 b 192 99 164 299 176 114 b 260 86 201 89 229 86 "},"1":{"ha":308,"x_min":0,"x_max":0,"o":"m 135 4 b 140 561 138 76 140 347 b 142 651 140 593 142 622 b 133 654 142 653 135 656 b 29 582 117 643 32 581 b 25 675 25 583 25 665 b 135 751 38 683 128 749 b 232 756 146 756 232 756 l 232 38 b 197 0 232 3 229 0 b 135 4 150 0 140 1 "},"2":{"ha":417,"x_min":0,"x_max":0,"o":"m 67 158 b 282 556 67 332 282 424 b 257 663 282 629 275 644 b 221 676 244 675 232 676 b 168 665 210 676 190 675 b 168 515 163 647 168 525 b 106 496 168 500 167 496 l 83 496 b 110 733 83 674 86 710 b 233 765 135 758 190 765 b 331 739 260 765 307 764 b 368 567 356 713 367 663 b 153 176 371 388 153 274 l 153 142 l 153 93 b 207 93 153 93 171 93 l 354 93 b 382 65 372 93 382 83 l 382 0 l 67 0 "},"3":{"ha":425,"x_min":0,"x_max":0,"o":"m 208 -175 b 92 -143 151 -175 111 -161 b 60 106 75 -100 60 -31 b 111 143 60 131 81 143 b 151 142 122 143 138 143 b 163 -71 147 131 146 -54 b 221 -83 172 -81 186 -83 b 271 -72 239 -83 257 -81 b 278 157 283 -21 278 122 b 260 324 278 294 271 313 b 97 333 243 340 182 336 b 99 399 97 333 89 383 b 257 667 124 440 251 658 l 60 667 b 60 724 60 674 60 704 b 90 760 60 750 69 760 l 353 760 l 353 689 b 322 614 353 667 340 649 b 213 424 292 556 243 471 b 332 392 274 422 299 415 b 371 167 354 357 371 297 b 333 -144 371 -86 364 -114 b 208 -175 307 -171 260 -175 "},"4":{"ha":428,"x_min":0,"x_max":0,"o":"m 272 -176 l 272 -21 b 254 0 272 -1 269 0 l 43 0 b 43 53 43 18 43 35 b 54 126 43 64 47 96 b 185 679 78 231 149 532 b 188 694 185 685 186 689 l 206 764 b 265 753 208 764 244 758 b 283 725 285 747 288 744 b 140 117 263 632 168 231 b 153 92 135 94 136 92 l 271 92 b 271 517 271 233 271 375 b 290 544 271 538 278 544 b 357 542 347 544 353 544 b 358 -178 356 533 358 -178 "},"5":{"ha":414,"x_min":0,"x_max":0,"o":"m 85 -151 b 58 106 75 -143 58 -58 b 106 144 58 131 74 144 l 146 144 b 157 -71 146 29 146 -58 b 221 -82 165 -81 186 -82 b 267 -71 233 -82 253 -79 b 269 260 279 -19 272 161 b 71 436 268 308 71 403 b 75 760 71 443 72 599 l 356 760 b 356 722 356 756 356 739 b 318 661 356 669 349 661 l 157 661 l 157 486 b 357 303 157 454 357 361 b 336 -143 357 -75 365 -110 b 208 -175 317 -165 260 -175 b 85 -151 140 -175 94 -160 "},"6":{"ha":456,"x_min":0,"x_max":0,"o":"m 243 -179 b 128 -162 160 -182 138 -171 b 76 126 118 -154 78 -132 l 75 408 b 117 738 74 657 90 711 b 244 764 138 758 196 764 b 356 746 310 764 342 756 b 390 594 368 731 390 671 b 335 554 390 560 383 554 b 304 556 332 554 308 553 b 290 663 304 611 306 646 b 238 675 281 674 263 675 b 176 667 210 675 188 672 b 169 407 167 632 168 414 b 243 414 186 411 229 414 b 361 388 297 414 343 403 b 404 139 392 356 403 319 b 365 -147 406 -61 390 -124 b 243 -179 338 -172 297 -178 m 250 -96 b 306 -89 268 -96 300 -90 b 314 124 310 -75 314 26 b 293 313 314 249 307 296 b 233 328 283 324 269 328 b 172 319 211 328 189 326 b 168 125 168 294 168 233 b 193 -82 168 -49 181 -69 b 250 -96 208 -97 233 -96 "},"7":{"ha":301,"x_min":0,"x_max":0,"o":"m 11 747 b 26 760 11 756 17 760 l 285 760 l 285 667 l 285 611 b 157 132 285 449 157 254 l 157 -146 b 126 -174 157 -171 154 -172 l 71 -175 l 71 114 b 199 600 71 290 199 463 l 199 667 l 10 667 b 11 747 10 667 11 722 "},"8":{"ha":476,"x_min":0,"x_max":0,"o":"m 242 -4 b 121 28 172 -4 140 11 b 71 288 89 61 68 128 b 94 492 74 408 78 460 b 168 554 107 515 144 544 b 88 740 119 583 88 643 b 117 911 88 811 93 888 b 239 943 142 936 183 943 b 356 917 282 943 326 938 b 399 743 376 903 399 819 b 310 558 399 638 358 586 b 393 481 344 542 376 511 b 407 293 407 433 407 371 b 368 32 407 90 393 57 b 242 -4 340 4 313 -4 m 243 603 b 311 736 282 622 311 660 b 293 851 311 796 307 838 b 239 867 282 863 267 867 b 182 853 228 867 200 863 b 175 739 176 835 175 782 b 243 603 175 657 211 619 m 250 83 b 307 97 275 83 292 89 b 314 286 314 135 314 190 b 292 472 314 418 307 457 b 236 511 276 488 254 508 b 179 461 219 504 185 474 b 167 293 168 440 165 414 b 186 100 168 147 174 114 b 250 83 201 82 224 83 "},"9":{"ha":458,"x_min":0,"x_max":0,"o":"m 219 765 b 340 749 303 768 331 757 b 392 465 350 740 390 724 l 393 192 b 351 -151 394 -43 378 -125 b 218 -178 331 -172 267 -178 b 104 -160 135 -178 122 -174 b 69 25 90 -136 69 -74 b 125 65 69 60 76 65 b 158 64 128 65 154 67 b 172 -76 158 8 157 -60 b 225 -89 182 -87 200 -89 b 286 -81 253 -89 275 -86 b 290 186 296 -46 293 186 l 221 186 b 104 201 142 186 114 194 b 60 453 89 215 60 256 b 94 735 60 707 69 711 b 219 765 122 760 165 764 m 213 682 b 158 675 194 682 164 676 b 156 467 153 622 156 564 b 172 288 156 342 157 301 b 229 272 182 279 193 272 b 290 281 251 272 274 274 b 294 467 294 306 294 358 b 269 668 294 594 282 656 b 213 682 254 683 229 682 "}," ":{"ha":222,"x_min":0,"x_max":0,"o":""},"e":{"ha":433,"x_min":0,"x_max":0,"o":"m 106 13 b 54 372 96 21 56 93 b 94 714 53 583 57 676 b 217 739 115 735 188 739 b 342 725 304 740 333 733 b 382 538 357 710 382 633 b 340 374 382 422 365 399 b 232 342 313 346 260 342 b 149 349 200 342 163 346 b 176 92 147 289 160 108 b 233 79 186 82 204 79 b 285 90 250 79 269 82 b 289 221 292 133 289 204 b 340 257 289 254 292 257 l 382 257 b 347 26 383 85 378 57 b 226 -4 321 0 278 -4 b 106 13 157 -4 115 4 m 279 428 b 269 643 288 460 293 619 b 160 653 238 674 172 656 b 154 432 151 619 142 444 b 279 428 174 413 260 419 "},"f":{"ha":247,"x_min":0,"x_max":0,"o":"m 75 358 b 75 653 75 474 78 650 b 14 651 72 656 18 651 l 14 667 b 29 732 14 729 15 732 l 74 732 b 110 1058 74 928 72 1021 b 232 1085 126 1075 157 1085 b 293 1076 258 1085 283 1081 b 282 1031 293 1074 288 1050 b 258 1003 274 1001 269 1000 b 225 1006 251 1004 242 1006 b 175 997 204 1006 186 1003 b 165 732 165 963 163 890 b 243 733 176 732 224 732 b 233 653 244 731 243 653 b 165 653 228 653 176 654 l 165 357 b 167 36 167 207 167 61 b 111 0 167 4 161 0 l 71 0 "},"g":{"ha":417,"x_min":0,"x_max":0,"o":"m 225 -307 b 86 -290 142 -307 96 -300 b 50 -39 60 -264 44 -156 b 115 -3 51 -8 56 -3 b 149 -6 126 -3 143 -4 b 157 -211 142 -49 140 -194 b 232 -229 171 -225 190 -229 b 296 -215 264 -229 281 -225 b 300 -61 301 -193 300 -61 b 138 122 299 -18 294 -12 b 140 240 100 154 103 201 b 218 318 161 263 203 301 b 85 340 185 306 110 317 b 42 510 63 363 42 414 b 82 711 42 628 60 689 b 199 740 104 733 157 740 l 238 740 b 267 864 239 753 264 857 b 335 871 271 875 276 882 b 367 861 357 867 367 863 l 321 718 b 360 538 350 681 360 628 l 360 435 b 319 313 361 394 349 342 b 206 199 297 290 208 203 b 294 117 210 193 251 157 b 396 -28 390 28 396 13 b 360 -276 396 -233 392 -244 b 225 -307 333 -303 278 -307 m 263 394 b 268 529 271 429 268 474 b 239 644 268 576 261 621 b 193 661 224 660 206 661 b 147 651 176 661 158 660 b 138 526 139 593 138 547 b 154 396 138 443 138 413 b 211 383 164 386 193 383 b 263 394 232 383 251 386 "},"h":{"ha":432,"x_min":0,"x_max":0,"o":"m 285 3 b 286 328 286 17 286 261 b 261 644 286 538 278 625 b 207 663 250 657 236 663 b 154 653 188 663 164 660 b 154 36 153 583 154 71 b 108 0 154 3 153 0 l 57 0 b 56 1051 58 28 56 1042 b 122 1083 56 1078 60 1083 l 154 1083 b 156 735 150 1032 157 794 b 217 740 161 735 189 740 b 336 725 263 740 328 733 b 382 372 350 711 382 647 b 383 36 382 175 383 260 b 339 0 383 3 381 0 b 285 3 318 0 289 0 "},"i":{"ha":214,"x_min":0,"x_max":0,"o":"m 56 847 b 57 921 56 847 57 890 b 122 957 57 951 61 957 l 154 957 b 154 868 154 868 154 879 b 106 847 154 853 150 847 l 56 847 m 108 0 b 56 3 65 0 60 1 b 54 700 56 260 54 454 b 121 736 54 731 58 736 b 153 732 143 736 150 733 l 154 36 b 108 0 154 8 147 0 "},"j":{"ha":213,"x_min":0,"x_max":0,"o":"m 56 847 b 57 921 56 847 57 890 b 122 957 57 951 61 957 l 154 957 b 154 868 154 868 154 879 b 106 847 154 853 150 847 l 56 847 m -82 -271 b -46 -221 -78 -225 -74 -221 b 53 -197 42 -221 47 -211 b 61 274 60 -108 61 235 b 56 700 61 419 56 650 b 122 736 56 731 60 736 b 154 732 144 736 151 733 l 156 283 b 114 -261 157 -139 153 -218 b -11 -306 88 -290 42 -306 b -85 -303 -43 -306 -67 -304 l -82 -271 "},"k":{"ha":425,"x_min":0,"x_max":0,"o":"m 57 3 b 61 524 58 132 61 331 b 56 1047 60 747 56 963 b 117 1083 56 1078 60 1083 b 158 1082 135 1083 153 1083 b 151 528 153 1035 150 778 b 157 32 151 308 157 94 b 106 0 157 4 150 0 b 57 3 69 0 64 1 m 408 4 b 364 0 407 3 389 0 b 300 6 311 0 303 1 b 163 403 299 11 163 403 b 161 425 158 403 160 425 b 256 646 182 425 225 557 b 289 735 268 682 285 731 b 336 732 297 743 310 744 b 381 707 360 721 379 710 b 256 414 374 694 256 421 b 403 25 254 390 364 118 b 408 4 410 8 410 6 "},"l":{"ha":221,"x_min":0,"x_max":0,"o":"m 147 0 b 92 11 117 0 100 4 b 58 538 68 67 58 150 b 56 1047 58 756 56 989 b 122 1083 56 1078 60 1083 b 154 1079 144 1083 151 1081 b 150 547 154 1071 150 806 b 167 92 150 350 149 113 b 190 82 174 83 181 82 b 214 6 196 82 215 76 b 147 0 206 3 186 0 "},"m":{"ha":647,"x_min":0,"x_max":0,"o":"m 56 3 b 58 365 57 100 58 267 b 61 729 58 576 53 722 b 217 740 71 736 189 740 b 317 722 283 740 311 731 b 436 740 346 733 390 740 b 546 725 481 740 538 733 b 592 369 560 711 592 647 l 593 36 b 549 0 593 3 590 0 b 494 3 506 0 499 0 b 494 364 496 17 494 197 b 469 644 494 536 488 624 b 428 663 458 657 446 663 b 360 653 410 663 374 658 b 374 369 371 601 372 514 l 376 36 b 333 0 376 4 372 0 b 281 3 290 0 285 1 b 279 364 282 17 279 278 b 254 644 279 536 272 624 b 208 663 243 657 231 663 b 153 653 188 663 164 660 l 153 372 b 154 36 154 217 154 58 b 108 0 154 1 153 0 b 56 3 65 0 60 0 "},"n":{"ha":438,"x_min":0,"x_max":0,"o":"m 56 3 b 58 365 57 100 58 267 b 61 729 58 576 53 722 b 217 740 71 736 189 740 b 336 725 271 740 328 733 b 382 369 350 711 382 647 l 383 36 b 339 0 383 3 381 0 b 285 3 296 0 289 0 b 285 364 286 17 285 197 b 260 644 285 536 278 624 b 208 663 249 657 236 663 b 153 653 188 663 164 660 l 153 372 b 154 36 154 217 154 58 b 108 0 154 1 153 0 b 56 3 65 0 60 0 "},"o":{"ha":447,"x_min":0,"x_max":0,"o":"m 106 13 b 53 372 96 21 53 93 b 94 714 53 583 58 676 b 218 740 115 735 179 740 b 342 725 304 740 332 732 b 390 375 357 710 390 636 b 351 26 390 85 382 57 b 226 -4 325 0 279 -4 b 106 13 143 -4 115 4 m 290 90 b 296 369 300 142 296 314 b 267 646 296 428 296 614 b 213 661 251 663 236 661 b 160 653 193 661 171 658 b 149 375 150 618 149 422 b 176 92 149 253 160 108 b 233 79 186 82 204 79 b 290 90 257 79 275 82 "},"p":{"ha":439,"x_min":0,"x_max":0,"o":"m 56 -272 b 53 372 56 -142 53 372 b 94 714 53 564 58 676 b 233 740 114 735 144 740 b 342 725 304 740 332 732 b 390 375 357 710 389 653 b 353 28 392 85 381 56 b 235 -4 329 4 292 -4 b 150 1 176 -4 163 -1 l 154 -269 b 88 -306 154 -300 150 -306 b 56 -304 65 -306 56 -303 l 56 -272 m 290 90 b 296 372 294 119 296 335 b 271 644 296 428 296 614 b 213 661 260 657 231 661 b 160 651 196 661 175 660 b 149 375 150 618 149 422 b 175 92 149 253 160 108 b 231 78 185 81 208 78 b 290 90 254 78 279 82 "},"q":{"ha":436,"x_min":0,"x_max":0,"o":"m 381 -269 b 314 -306 381 -300 376 -306 b 282 -303 292 -306 282 -303 b 283 1 282 -279 281 -10 b 217 -4 278 -3 257 -4 b 96 13 156 -4 133 -4 b 43 372 81 21 43 119 b 83 713 43 583 47 676 b 219 740 106 735 169 740 b 332 725 243 740 294 740 b 381 375 347 710 381 614 l 381 -269 m 281 90 b 285 367 289 115 285 306 b 257 646 283 547 283 618 b 211 661 246 658 232 661 b 150 656 189 661 163 660 b 139 372 140 618 139 397 b 167 92 139 250 150 108 b 221 76 176 82 194 76 b 281 90 242 76 264 81 "},"r":{"ha":322,"x_min":0,"x_max":0,"o":"m 50 3 b 51 363 53 14 51 353 b 54 728 51 474 49 722 b 160 736 61 735 67 736 b 290 725 222 736 282 733 b 321 519 304 711 321 654 b 279 457 321 461 318 457 b 229 458 257 457 235 458 b 215 646 235 563 228 631 b 175 660 207 657 196 660 b 142 653 161 660 153 658 b 139 363 135 618 138 460 b 146 36 140 224 146 94 b 81 0 146 3 143 0 b 50 3 57 0 53 0 "},"s":{"ha":394,"x_min":0,"x_max":0,"o":"m 72 14 b 35 244 63 22 35 50 b 79 272 35 264 44 272 l 136 272 b 143 93 129 253 126 110 b 197 81 153 83 168 81 b 254 92 224 81 239 83 b 256 246 254 100 256 185 b 38 515 256 350 38 393 b 69 708 38 579 39 676 b 194 740 97 736 151 740 b 301 726 229 740 292 733 b 333 538 317 711 333 636 b 267 513 333 521 329 513 l 240 513 b 226 647 242 532 244 629 b 182 661 214 660 193 661 b 129 650 171 661 151 660 b 129 536 128 619 129 574 b 353 263 129 460 353 415 b 315 28 353 79 346 58 b 186 -4 289 1 246 -3 b 72 14 111 -6 82 6 "},"t":{"ha":431,"x_min":0,"x_max":0,"o":"m 125 13 b 72 372 115 21 72 93 l 75 649 b 28 647 75 651 28 647 l 28 690 b 58 733 28 731 32 733 l 75 733 b 76 858 75 735 76 850 b 132 875 76 874 79 875 l 179 875 b 176 735 175 854 176 735 b 383 736 174 732 319 731 b 382 663 385 731 382 688 b 364 646 382 646 374 646 l 176 647 b 174 369 172 563 174 460 b 194 92 174 163 182 104 b 246 78 206 81 219 78 b 294 85 289 78 294 85 b 300 403 307 113 300 340 b 358 449 300 442 313 449 l 396 449 b 364 26 403 85 381 43 b 239 -4 338 0 292 -4 b 125 13 196 -4 163 -4 "},"u":{"ha":435,"x_min":0,"x_max":0,"o":"m 382 733 b 379 371 381 636 379 469 b 376 7 379 160 385 14 b 221 -4 367 -1 249 -4 b 101 11 167 -4 110 3 b 56 367 88 25 56 89 l 56 700 b 100 736 56 733 58 736 b 153 733 143 736 149 736 b 151 372 153 719 151 539 b 178 92 151 200 161 111 b 229 74 189 79 201 74 b 285 83 250 74 274 76 b 285 364 285 153 286 256 b 283 700 283 519 283 678 b 329 736 283 735 285 736 b 382 733 372 736 378 736 "},"v":{"ha":415,"x_min":0,"x_max":0,"o":"m 72 736 b 126 729 97 736 118 733 b 158 369 139 653 147 531 b 178 96 168 224 172 175 b 203 68 179 76 186 68 b 246 74 232 68 240 71 b 297 436 257 92 285 211 b 301 699 303 539 303 657 b 354 738 300 729 315 738 l 389 738 b 379 458 390 656 385 540 b 292 1 363 204 336 46 b 204 -7 285 -6 264 -7 b 94 7 136 -7 110 -1 b 64 368 88 47 76 197 b 32 706 50 549 40 644 b 72 736 29 731 36 736 "},"w":{"ha":833,"x_min":0,"x_max":0,"o":"m 50 704 b 92 735 46 731 56 735 b 146 728 117 735 138 732 b 176 415 158 651 169 521 b 197 100 186 269 197 179 b 221 72 197 81 204 72 b 264 76 250 72 258 74 b 317 422 289 100 301 197 b 332 694 321 482 329 653 b 417 740 333 721 326 740 b 515 736 494 740 510 738 b 550 415 528 660 543 522 b 571 100 560 269 567 179 b 594 72 571 81 576 72 b 638 76 622 72 633 74 b 685 422 646 94 672 197 b 693 699 690 522 693 657 b 746 738 693 729 707 738 l 785 738 b 771 444 786 656 775 524 b 688 6 756 190 731 49 b 596 -3 681 -1 654 -3 b 486 11 528 -3 501 3 b 456 414 475 51 465 243 b 431 656 451 485 433 638 b 414 664 429 665 426 667 b 401 444 411 582 403 461 b 326 6 381 190 369 49 b 222 -3 319 -1 282 -3 b 113 11 154 -3 128 3 b 82 414 103 51 93 244 b 50 704 76 496 60 643 "},"x":{"ha":382,"x_min":0,"x_max":0,"o":"m 0 4 b 139 385 11 32 129 356 b 39 663 135 396 72 574 b 65 726 26 696 24 710 b 110 736 89 736 101 738 b 196 486 111 732 185 521 l 199 476 l 201 486 b 281 728 224 549 275 721 b 318 729 288 738 303 736 b 358 706 338 721 357 708 b 244 383 351 693 249 394 b 372 25 251 360 342 115 b 378 4 378 8 379 6 b 336 0 376 3 361 0 b 276 4 310 0 279 1 b 189 279 275 8 217 183 l 188 285 l 186 279 b 88 11 178 257 100 22 b 44 0 79 3 74 0 b 0 4 10 0 1 1 "},"y":{"ha":449,"x_min":0,"x_max":0,"o":"m 35 693 b 75 738 28 732 29 738 b 129 733 93 738 114 736 b 183 100 154 610 183 283 b 201 83 183 89 192 83 b 249 117 215 83 229 90 b 297 511 274 151 297 226 b 286 721 297 631 290 693 b 293 732 286 725 286 729 b 388 732 310 742 375 735 b 393 535 390 719 393 689 b 61 -303 393 -204 261 -303 b 85 -218 61 -303 64 -218 b 279 46 172 -218 236 -185 b 164 -3 265 8 208 -3 b 115 14 143 -3 126 3 b 94 54 106 24 97 39 b 88 154 90 74 89 132 b 35 693 69 440 51 599 "},"z":{"ha":267,"x_min":0,"x_max":0,"o":"m 0 61 b 160 639 0 61 156 629 b 147 649 163 646 158 649 l 6 649 b 6 703 6 672 6 690 b 43 736 6 732 14 736 l 256 735 b 256 650 256 735 260 661 l 104 103 b 108 86 101 94 97 86 l 264 88 b 264 44 264 81 264 61 b 219 0 264 13 256 0 l 0 0 "},"G":{"ha":560,"x_min":0,"x_max":0,"o":"m 324 526 b 500 528 388 526 494 528 b 496 253 496 465 496 351 b 457 50 496 175 489 93 b 279 -3 436 22 368 -4 b 96 56 186 -1 121 22 b 61 531 72 100 61 210 b 114 1000 61 913 72 947 b 281 1046 139 1032 169 1046 b 444 1006 378 1046 413 1033 b 492 772 485 940 492 904 b 475 740 492 743 490 740 b 388 742 397 740 396 740 b 358 932 388 876 381 910 b 279 953 344 946 326 953 b 197 938 231 953 210 949 b 172 532 178 901 172 819 b 194 115 172 164 176 138 b 281 89 208 99 231 89 b 371 106 332 89 358 94 b 390 433 388 150 390 169 b 278 429 342 435 299 435 b 272 493 274 439 272 469 b 324 526 272 524 274 526 m 500 528 b 500 528 500 528 500 528 "},"A":{"ha":518,"x_min":0,"x_max":0,"o":"m 354 3 b 336 354 344 29 336 208 b 310 378 336 371 333 378 b 154 378 264 378 196 379 b 153 318 153 358 153 338 b 151 39 153 176 150 85 b 115 0 153 1 150 0 b 57 6 58 0 61 1 b 64 425 54 8 54 140 b 164 1018 74 713 126 983 b 281 1042 183 1036 199 1042 b 435 1001 336 1042 400 1026 b 435 468 431 943 432 635 b 458 26 438 289 446 128 b 438 0 461 6 458 0 b 354 3 385 0 369 0 m 172 464 b 336 464 210 464 268 461 b 340 742 335 588 338 643 b 336 940 340 788 344 932 b 271 956 328 949 306 956 b 226 946 250 956 235 953 b 182 724 217 933 196 857 b 161 483 175 658 169 568 b 172 464 160 469 163 464 "},"a":{"ha":435,"x_min":0,"x_max":0,"o":"m 211 -4 b 90 13 131 -4 100 4 b 51 214 76 25 51 113 b 90 390 51 325 61 365 b 214 417 118 414 160 417 l 283 417 b 261 651 283 597 272 640 b 207 665 250 663 225 665 b 151 657 183 665 161 663 b 140 526 138 618 140 542 b 83 494 140 503 131 494 b 53 496 74 494 58 494 b 82 714 50 544 57 686 b 213 740 104 738 160 740 b 333 724 272 740 315 738 b 378 375 350 699 371 633 b 339 26 385 85 369 57 b 211 -4 313 0 267 -4 m 221 78 b 278 86 235 78 261 81 b 285 225 283 128 285 171 b 272 329 285 306 279 322 b 222 342 264 338 253 342 b 151 332 189 342 168 339 b 143 221 144 303 143 265 b 164 89 143 194 146 107 b 221 78 174 79 203 78 "},"b":{"ha":440,"x_min":0,"x_max":0,"o":"m 54 1047 b 121 1083 54 1078 58 1083 b 153 1081 143 1083 153 1081 b 147 736 153 750 153 743 b 218 740 156 739 167 740 b 339 724 279 740 301 740 b 392 364 354 715 392 617 b 351 24 392 153 388 60 b 215 -4 329 1 265 -4 b 103 11 192 -4 140 -4 b 54 361 88 26 54 122 l 54 1047 m 154 646 b 150 369 146 621 150 431 b 178 90 150 189 153 119 b 224 75 189 78 203 75 b 285 81 246 75 272 76 b 296 364 294 118 296 339 b 268 644 296 486 285 628 b 214 660 258 654 240 660 b 154 646 193 660 171 656 "},"H":{"ha":567,"x_min":0,"x_max":0,"o":"m 69 1004 b 140 1040 69 1039 78 1040 b 172 1036 163 1040 169 1038 b 171 590 172 1018 169 811 b 288 588 206 589 249 588 b 396 590 315 588 357 589 b 393 1004 396 749 393 900 b 464 1040 393 1039 401 1040 b 496 1036 486 1040 493 1038 b 494 524 496 1017 493 768 b 497 39 494 289 497 57 b 451 3 497 11 490 3 b 394 6 408 3 399 4 b 396 503 394 133 397 318 l 286 506 b 171 504 246 506 206 506 b 174 39 171 276 174 57 b 128 3 174 11 167 3 b 71 6 85 3 75 4 b 72 518 71 136 74 328 b 69 1004 72 701 69 883 "},"L":{"ha":385,"x_min":0,"x_max":0,"o":"m 69 1006 b 140 1042 69 1040 78 1042 b 172 1038 163 1042 169 1039 b 171 538 172 871 171 704 b 172 106 171 407 172 178 b 201 85 172 88 178 83 b 396 99 260 88 382 96 b 397 40 396 99 397 83 b 393 10 397 18 396 13 b 172 4 388 4 390 4 b 71 7 81 4 75 6 b 72 529 72 26 72 356 b 69 1006 72 688 69 847 "},"E":{"ha":425,"x_min":0,"x_max":0,"o":"m 68 1007 b 72 1038 68 1029 69 1035 b 92 1043 78 1043 74 1043 b 378 1043 258 1043 369 1044 b 381 1008 379 1038 379 1033 b 379 951 383 961 382 954 b 226 954 376 949 306 953 l 171 956 b 169 585 171 832 169 708 l 372 585 b 375 550 374 582 375 575 b 368 501 375 535 371 504 b 229 494 363 496 356 494 l 169 494 b 171 107 169 361 171 172 b 200 86 171 89 176 85 b 394 100 258 89 381 97 b 396 42 394 100 396 85 b 392 11 396 19 394 14 b 171 6 386 6 389 6 b 69 8 79 6 74 7 b 71 531 71 28 71 357 b 68 1007 71 689 68 849 "},"I":{"ha":243,"x_min":0,"x_max":0,"o":"m 175 39 b 129 3 175 11 168 3 b 72 6 86 3 76 4 b 74 518 72 136 75 328 b 71 1004 74 701 71 883 b 142 1040 71 1039 79 1040 b 174 1036 164 1040 171 1038 b 172 524 174 1017 171 768 b 175 39 172 289 175 57 "},"F":{"ha":415,"x_min":0,"x_max":0,"o":"m 69 1006 b 74 1036 69 1028 71 1033 b 99 1042 78 1040 82 1042 b 369 1042 265 1042 361 1043 b 372 1007 371 1036 371 1032 b 371 950 375 960 374 953 b 228 953 368 947 297 951 l 174 954 b 172 540 172 815 171 676 l 369 540 b 372 506 371 538 372 531 b 365 456 372 490 369 460 b 240 450 360 450 353 449 l 174 451 b 175 78 175 272 175 140 b 142 4 175 7 172 4 b 71 7 82 4 75 6 b 72 529 72 26 72 356 b 69 1006 72 688 69 847 "},"M":{"ha":879,"x_min":0,"x_max":0,"o":"m 68 6 b 79 488 65 8 71 203 b 115 1022 88 775 92 1000 b 232 1046 133 1040 154 1046 b 335 1036 283 1046 324 1042 b 408 117 361 863 401 313 b 436 89 410 94 418 89 b 464 90 450 89 460 89 b 518 638 479 140 508 344 b 513 999 522 758 517 950 b 663 1046 510 1038 518 1046 b 800 1029 724 1046 776 1039 b 811 457 801 851 808 628 b 808 39 814 267 808 103 b 781 0 808 4 806 0 b 699 3 713 0 706 0 b 704 447 697 14 704 222 b 696 871 704 601 701 760 b 689 951 694 897 693 947 b 649 957 683 957 660 957 b 614 951 632 957 622 956 b 614 669 615 908 618 761 b 538 0 601 369 567 81 b 422 -4 529 -3 507 -4 b 317 28 346 -4 331 3 b 281 464 310 40 307 61 b 232 949 261 751 251 822 b 207 953 229 951 221 953 b 186 946 199 953 189 950 b 175 496 179 918 182 763 l 164 49 b 135 0 163 11 157 0 b 68 6 78 0 72 1 "},"O":{"ha":572,"x_min":0,"x_max":0,"o":"m 101 54 b 65 529 76 100 68 211 b 121 1001 63 913 79 950 b 286 1046 144 1031 174 1046 b 449 1006 383 1046 421 1029 b 507 528 494 942 507 844 b 465 50 507 147 499 96 b 279 -4 444 21 376 -6 b 101 54 192 -3 126 24 m 378 108 b 396 521 393 151 396 213 b 364 932 396 839 385 910 b 283 953 350 946 332 953 b 203 939 238 953 217 949 b 176 532 181 906 174 821 b 201 114 179 163 183 138 b 288 89 215 96 236 89 b 378 108 336 89 363 93 "},"Q":{"ha":556,"x_min":0,"x_max":0,"o":"m 60 529 b 115 1001 57 913 74 950 b 281 1046 139 1031 168 1046 b 443 1006 378 1046 415 1029 b 501 528 489 942 501 844 b 460 50 501 147 493 96 b 442 33 456 44 450 39 l 490 -14 b 451 -46 478 -25 469 -33 b 407 -47 433 -58 421 -60 l 357 3 b 274 -4 332 -3 304 -4 b 96 54 186 -3 121 24 b 60 529 71 100 63 211 m 171 532 b 196 114 174 163 176 136 b 281 82 215 90 239 83 l 250 108 l 300 150 b 336 144 310 158 322 158 b 371 107 349 132 358 121 l 372 108 b 390 521 388 151 390 213 b 358 932 390 839 379 910 b 278 953 344 946 326 953 b 197 939 232 953 211 949 b 171 532 175 906 168 821 "},"d":{"ha":439,"x_min":0,"x_max":0,"o":"m 383 1050 b 386 365 383 919 386 365 b 344 24 386 174 381 61 b 206 -3 325 3 294 -3 b 97 13 135 -3 107 6 b 49 363 82 28 50 85 b 86 710 47 653 58 682 b 204 742 110 733 147 742 b 286 725 250 742 272 736 l 285 1047 b 351 1083 285 1078 289 1083 b 383 1082 374 1083 383 1081 l 383 1050 m 149 647 b 143 365 144 618 143 403 b 168 93 143 310 142 122 b 226 76 179 81 208 76 b 279 86 243 76 264 78 b 290 363 289 119 290 315 b 264 646 290 485 279 629 b 208 660 254 657 231 660 b 149 647 185 660 160 656 "},"c":{"ha":400,"x_min":0,"x_max":0,"o":"m 215 -4 b 108 13 160 -4 124 0 b 57 372 99 21 56 93 b 97 710 58 563 60 672 b 213 739 118 731 169 739 b 317 725 251 739 307 732 b 358 535 332 710 358 658 b 267 518 358 513 272 513 b 246 651 268 589 267 633 b 206 661 236 660 221 661 b 163 653 182 661 174 658 b 150 379 153 639 150 471 b 179 92 150 224 163 108 b 224 79 190 81 196 79 b 267 92 244 79 257 85 b 271 243 275 142 271 222 b 356 272 271 263 283 272 l 365 272 b 326 26 365 92 356 56 b 215 -4 299 -1 268 -4 "},"T":{"ha":404,"x_min":0,"x_max":0,"o":"m -12 1004 b -8 1035 -12 1026 -11 1032 b 206 1040 -3 1040 -7 1040 l 415 1039 b 417 1004 417 1033 417 1029 b 414 949 417 954 417 951 b 251 957 410 944 400 946 l 253 39 b 207 3 253 11 246 3 b 150 6 164 3 154 4 l 149 957 b -11 946 85 953 -8 944 b -12 1004 -11 946 -12 961 "},"C":{"ha":556,"x_min":0,"x_max":0,"o":"m 483 378 b 442 50 481 132 469 89 b 269 -4 421 21 353 -6 b 106 54 182 -3 131 24 b 69 529 81 100 72 211 b 125 1001 67 913 83 950 b 276 1046 149 1031 164 1046 b 425 1006 360 1046 397 1029 b 476 796 453 965 471 904 b 438 735 479 744 465 738 b 369 738 415 732 382 735 b 340 932 365 874 356 917 b 274 953 326 946 308 953 b 207 939 228 953 221 949 b 181 532 185 906 178 821 b 206 114 185 163 188 138 b 278 89 219 96 226 89 b 354 108 313 89 339 93 b 372 307 365 138 372 181 b 413 371 372 357 381 365 b 483 378 438 375 458 376 "},"D":{"ha":536,"x_min":0,"x_max":0,"o":"m 68 1004 b 249 1042 68 1038 75 1042 b 414 1006 346 1042 386 1029 b 469 528 454 942 469 844 b 421 49 469 121 453 81 b 242 4 390 18 354 4 b 69 10 113 4 75 6 b 71 518 69 140 71 328 b 68 1004 71 701 68 883 m 176 524 b 179 111 176 358 178 200 b 250 99 189 103 208 99 b 342 122 311 99 331 110 b 358 521 356 169 358 213 b 328 929 358 839 346 911 b 246 949 314 943 294 949 b 176 943 186 949 186 947 l 176 524 "},"B":{"ha":515,"x_min":0,"x_max":0,"o":"m 239 4 b 69 14 110 4 78 8 b 68 778 71 33 69 463 b 67 1039 68 879 60 1035 b 244 1046 72 1043 128 1043 b 392 1003 311 1047 351 1035 b 436 814 422 956 436 896 b 388 575 436 650 422 608 b 419 543 397 569 413 556 b 467 281 453 490 467 407 b 418 49 467 138 450 81 b 239 4 388 18 351 4 m 297 599 b 325 782 313 608 325 644 b 306 932 325 896 321 917 b 236 950 292 946 275 950 b 176 940 200 950 186 947 b 175 789 176 890 175 846 b 176 596 175 725 175 621 b 297 599 183 594 283 596 m 176 111 b 243 97 185 100 207 96 b 339 122 308 100 328 107 b 357 276 354 168 357 208 b 325 483 357 426 344 464 b 231 504 311 497 292 503 b 176 496 200 504 186 501 b 176 111 174 481 167 124 "},"U":{"ha":564,"x_min":0,"x_max":0,"o":"m 486 1040 b 492 514 489 971 492 632 b 450 50 492 133 483 96 b 282 -4 429 21 368 -6 b 101 54 194 -3 126 24 b 65 543 76 100 65 194 l 65 971 b 114 1042 65 1036 69 1042 l 181 1042 b 179 546 179 979 178 665 b 204 114 182 176 186 138 b 290 89 218 96 239 89 b 369 108 328 89 354 93 b 388 507 385 151 388 199 b 385 994 388 601 385 865 b 438 1042 385 1038 388 1042 b 486 1040 461 1042 468 1042 "},"J":{"ha":375,"x_min":0,"x_max":0,"o":"m 42 93 b 93 89 54 90 71 89 b 183 108 142 89 168 93 b 206 521 199 151 206 213 b 201 992 206 797 201 868 b 235 1038 201 1035 208 1038 l 313 1038 b 307 528 313 1025 307 804 b 271 50 307 147 304 96 b 85 -4 250 21 182 -6 b 4 8 43 -4 29 -1 b 13 75 4 31 8 53 b 42 93 18 93 25 97 "},"P":{"ha":461,"x_min":0,"x_max":0,"o":"m 390 1000 b 439 785 422 968 439 831 b 383 489 439 600 424 553 b 231 453 356 465 301 453 l 165 453 b 171 39 167 244 171 56 b 125 3 171 11 164 3 b 68 6 82 3 72 4 b 65 519 68 93 65 629 b 67 1004 65 618 67 668 b 138 1040 67 1033 75 1040 b 243 1042 165 1040 192 1040 b 390 1000 329 1044 360 1031 m 307 556 b 332 776 321 572 332 593 b 311 926 332 821 325 893 b 235 950 300 939 282 950 b 171 938 192 950 181 946 b 168 789 169 904 168 829 l 168 551 b 228 542 178 547 192 542 b 307 556 276 542 299 546 m 65 490 b 65 519 65 503 65 513 "},"R":{"ha":501,"x_min":0,"x_max":0,"o":"m 400 4 b 264 465 389 14 317 318 b 172 467 239 461 201 463 b 183 1 172 167 175 88 b 83 0 160 -1 107 -1 b 67 42 71 1 67 7 l 68 978 b 225 1042 68 1021 75 1042 b 385 1003 286 1042 357 1026 b 443 779 418 967 443 885 b 364 494 443 615 421 542 b 524 7 383 408 478 115 b 463 0 504 1 479 0 b 400 4 426 0 406 0 m 179 572 b 236 557 196 558 210 557 b 314 578 271 557 300 564 b 332 776 329 621 333 694 b 299 936 331 864 317 922 b 239 950 286 946 267 950 b 175 942 213 950 189 947 b 168 754 168 922 167 910 b 179 572 169 583 171 579 "},"K":{"ha":533,"x_min":0,"x_max":0,"o":"m 69 4 b 72 596 69 106 71 388 b 71 1008 74 793 75 917 b 97 1039 69 1036 72 1039 b 185 1038 118 1039 175 1039 b 179 607 185 1010 179 819 l 179 582 b 228 589 193 581 215 582 b 356 1014 258 607 333 915 b 385 1038 360 1032 365 1038 l 482 1038 b 400 793 476 1025 436 908 b 335 557 365 681 335 568 b 408 306 347 500 376 406 b 497 46 436 215 476 104 b 508 6 508 15 510 7 b 454 0 506 3 486 0 b 392 7 411 0 399 1 b 242 501 392 14 249 503 l 179 493 b 179 53 178 283 179 89 b 139 0 179 1 178 0 b 69 4 106 0 74 1 "},"V":{"ha":486,"x_min":0,"x_max":0,"o":"m 79 1046 b 143 1039 108 1046 133 1043 b 181 563 157 949 168 753 b 206 118 192 390 201 211 b 233 86 207 96 213 86 b 285 90 267 86 279 88 b 344 642 294 111 329 376 b 349 1001 351 763 350 953 b 411 1049 347 1039 365 1049 l 457 1049 b 446 668 463 951 451 764 b 343 7 428 368 394 58 b 235 -3 335 -1 304 -3 b 111 18 154 -3 129 4 b 69 561 99 65 83 360 b 29 1010 56 775 39 939 b 79 1046 25 1042 36 1046 "},"W":{"ha":986,"x_min":0,"x_max":0,"o":"m 67 1010 b 117 1046 63 1042 74 1046 b 181 1039 146 1046 171 1043 b 218 563 194 949 206 753 b 243 117 229 390 238 210 b 271 85 244 94 250 85 b 321 89 304 85 315 86 b 382 642 351 117 367 376 b 397 999 389 763 394 950 b 501 1053 399 1031 393 1053 b 618 1049 593 1053 611 1050 b 658 563 632 958 646 753 b 683 117 669 390 678 210 b 713 85 685 94 692 85 b 764 89 746 85 758 86 b 824 642 774 110 808 376 b 828 1001 831 763 829 953 b 890 1049 826 1039 844 1049 l 936 1049 b 925 668 942 951 931 764 b 822 7 907 368 874 58 b 714 -4 814 -1 806 -4 b 589 14 633 -4 607 3 b 549 561 576 61 563 360 b 518 953 539 706 521 932 b 496 963 517 964 511 967 b 483 668 494 865 488 739 b 394 6 465 368 446 57 b 272 -4 386 -3 369 -4 b 147 14 192 -4 165 1 b 107 561 135 61 119 360 b 67 1010 93 775 76 939 "},"N":{"ha":571,"x_min":0,"x_max":0,"o":"m 68 457 b 65 992 69 618 65 819 b 74 1036 65 1006 64 1028 b 128 1046 82 1043 93 1046 b 154 1043 139 1046 147 1044 b 172 908 154 1013 153 946 b 286 708 207 843 225 811 b 401 504 329 635 385 535 b 401 965 406 690 399 865 b 449 1036 403 1024 406 1036 b 507 1032 481 1036 497 1035 b 497 540 500 956 499 669 b 501 10 494 235 508 19 b 406 3 492 -4 424 0 b 397 279 408 33 407 249 b 261 556 379 338 322 442 b 163 729 219 633 186 692 b 165 419 163 589 165 432 b 168 71 165 263 168 121 b 126 0 168 6 167 0 b 65 8 82 0 71 4 l 68 457 "},"Z":{"ha":318,"x_min":0,"x_max":0,"o":"m 10 0 b 17 113 10 54 10 79 b 189 940 75 390 131 663 b 174 957 193 957 192 958 l 28 946 b 25 1011 25 950 25 963 b 79 1038 25 1035 38 1038 b 292 1038 147 1038 267 1036 b 296 950 297 1021 299 967 l 121 94 b 138 82 118 85 121 81 b 308 92 183 86 300 93 b 314 19 314 85 314 79 b 288 0 314 6 311 0 l 10 0 "},"Y":{"ha":476,"x_min":0,"x_max":0,"o":"m 35 1033 b 64 1038 38 1036 38 1038 b 147 1032 118 1038 132 1036 b 214 433 144 1025 203 511 b 226 419 215 424 219 419 b 279 421 233 419 272 419 b 310 721 281 426 296 575 b 332 1006 321 858 329 994 b 390 1038 339 1035 349 1038 b 438 1033 433 1038 432 1036 b 401 729 432 1018 410 835 b 365 404 393 631 371 471 b 339 353 363 374 356 361 b 293 339 331 349 307 346 b 294 215 293 289 294 229 l 297 35 b 251 -1 297 7 290 -1 b 194 1 208 -1 199 0 l 196 210 b 194 340 196 243 196 285 b 128 361 175 346 128 356 b 88 696 117 418 106 589 b 40 992 72 788 53 932 b 35 1033 33 1022 33 1032 "},"S":{"ha":411,"x_min":0,"x_max":0,"o":"m 65 33 b 29 335 46 61 29 157 b 81 368 29 358 40 368 l 142 368 b 154 103 133 344 133 122 b 215 86 167 92 181 86 b 286 99 247 86 268 89 b 292 293 292 113 293 221 b 29 776 288 482 29 618 b 63 1008 29 853 24 969 b 215 1047 96 1042 160 1047 b 335 1031 251 1047 324 1039 b 374 799 353 1011 374 918 b 296 769 374 779 365 769 l 264 769 b 247 935 265 793 269 913 b 200 951 232 950 213 951 b 133 939 186 951 160 950 b 133 801 132 901 133 847 b 400 314 133 672 400 519 b 356 32 400 93 392 68 b 201 -7 324 0 274 -6 b 65 33 136 -8 104 3 "},"X":{"ha":510,"x_min":0,"x_max":0,"o":"m 92 1039 b 146 1033 131 1039 142 1036 b 189 808 146 1031 168 908 b 236 593 207 724 229 633 b 247 572 239 578 240 572 l 253 572 b 339 1014 265 593 317 915 b 368 1038 343 1032 349 1038 b 453 1033 419 1038 440 1035 b 394 785 447 1021 419 900 b 346 544 369 668 347 558 b 406 297 357 488 381 393 b 476 46 429 207 458 106 b 485 3 486 15 486 4 b 450 0 482 0 476 0 b 360 6 385 0 375 1 b 258 476 367 13 274 399 b 247 489 256 488 254 489 l 238 489 b 143 32 236 478 149 56 b 85 0 136 3 126 0 b 25 4 42 0 31 1 b 97 285 31 19 72 182 b 150 544 124 394 149 524 b 94 767 149 558 121 664 b 32 1031 32 1011 28 1026 b 92 1039 35 1033 67 1039 "}}}
